<?xml version="1.0" encoding="UTF-8" standalone="no"?>
<!DOCTYPE svg PUBLIC "-//W3C//DTD SVG 1.1//EN" "http://www.w3.org/Graphics/SVG/1.1/DTD/svg11.dtd">
<svg width="100%" height="100%" viewBox="0 0 1920 1080" version="1.1" xmlns="http://www.w3.org/2000/svg" xmlns:xlink="http://www.w3.org/1999/xlink" xml:space="preserve" xmlns:serif="http://www.serif.com/" style="fill-rule:evenodd;clip-rule:evenodd;stroke-linejoin:round;stroke-miterlimit:2;">
    <g>
        <path d="M428.698,260.565L172.519,260.565L172.519,577.255C172.519,541.655 255.501,449.407 289.919,449.407C289.919,431.817 290.395,376.454 290.395,376.454L428.698,376.454C428.698,376.454 499.75,376.691 499.75,445.368C499.75,514.044 428.698,513.093 428.698,513.093L330.792,513.093C265.101,513.093 179.721,552.519 172.971,644.787L172.519,644.787L172.519,747.478L302.267,747.478L302.267,627.71L428.698,627.71C533.732,627.71 615.232,551.353 615.232,445.92C615.232,346.987 539.91,260.565 428.698,260.565Z" style="fill:white;fill-rule:nonzero;"/>
        <path d="M596.5,709.682L631.777,709.682L637.937,747.479L679.374,747.479L642.696,547.294L585.581,547.294L548.623,747.479L590.62,747.479L596.5,709.682ZM609.659,627.368C611.339,617.289 612.739,603.85 613.299,596.011L614.978,596.011C615.538,603.85 617.218,617.289 618.618,627.368L625.898,673.285L602.379,673.285L609.659,627.368Z" style="fill:rgb(210,210,210);fill-rule:nonzero;"/>
        <path d="M803.682,667.965L825.24,747.479L869.477,747.479L842.879,657.886C859.117,647.527 864.997,629.608 864.997,608.89L864.997,608.33C864.997,575.012 852.958,547.294 804.242,547.294L749.646,547.294L749.926,567.733L749.926,727.041L749.646,747.479L791.642,747.479L791.362,727.041L791.362,667.965L803.682,667.965ZM791.362,582.292L800.042,582.292C818.52,582.292 822.72,593.771 822.72,607.77L822.72,608.33C822.72,622.329 818.8,633.808 799.482,633.808L791.362,633.808L791.362,582.292Z" style="fill:rgb(210,210,210);fill-rule:nonzero;"/>
        <path d="M1020.383,547.294L994.905,599.371L984.546,619.529L983.426,619.529C983.706,613.37 983.986,604.13 983.986,597.411L983.986,567.733L984.266,547.294L942.269,547.294L942.549,567.733L942.549,727.041L942.269,747.479L984.266,747.479L983.986,727.041L983.986,686.164L996.585,661.806L1022.903,747.479L1067.419,747.479L1026.822,622.049L1065.18,547.294L1020.383,547.294Z" style="fill:rgb(210,210,210);fill-rule:nonzero;"/>
        <path d="M1125.373,691.204C1129.013,729.561 1151.971,750.839 1188.369,750.839C1224.206,750.839 1247.164,730.121 1247.164,696.243C1247.164,672.445 1235.965,652.847 1213.847,638.008L1192.848,624.569C1179.689,615.329 1171.85,608.05 1171.85,597.131C1171.85,587.891 1177.45,581.452 1187.249,581.452C1198.168,581.452 1203.208,589.291 1205.447,602.73L1244.924,599.371C1241.565,563.533 1221.126,543.935 1188.089,543.935C1151.971,543.935 1129.293,566.613 1129.293,599.371C1129.293,621.489 1139.652,639.968 1161.491,655.086L1182.209,668.525C1197.888,679.165 1204.328,688.124 1204.328,698.203C1204.328,707.442 1198.448,713.322 1187.809,713.322C1175.77,713.322 1168.21,705.763 1164.85,687.844L1125.373,691.204Z" style="fill:rgb(210,210,210);fill-rule:nonzero;"/>
        <path d="M1320.798,547.294L1321.078,567.733L1321.078,727.041L1320.798,747.479L1362.795,747.479L1362.515,727.041L1362.515,567.733L1362.795,547.294L1320.798,547.294Z" style="fill:rgb(210,210,210);fill-rule:nonzero;"/>
        <path d="M1507.258,547.294L1447.903,547.294L1448.183,567.733L1448.183,727.041L1447.903,747.479L1507.258,747.479C1522.937,747.479 1535.816,743.84 1545.895,735.44C1558.494,725.081 1563.534,709.402 1563.534,680.285L1563.534,614.489C1563.534,585.372 1558.494,569.693 1545.895,559.334C1535.816,550.934 1522.937,547.294 1507.258,547.294ZM1500.819,582.292C1517.617,582.292 1521.257,595.731 1521.257,608.89L1521.257,685.884C1521.257,700.723 1517.338,712.482 1500.819,712.482L1489.62,712.482L1489.62,582.292L1500.819,582.292Z" style="fill:rgb(210,210,210);fill-rule:nonzero;"/>
        <path d="M1729.281,661.246L1729.281,624.849L1686.165,624.849L1686.165,583.132L1739.641,583.132L1739.641,547.294L1644.448,547.294L1644.728,567.733L1644.728,727.041L1644.448,747.479L1740.76,747.479L1740.76,711.642L1686.165,711.642L1686.165,661.246L1729.281,661.246Z" style="fill:rgb(210,210,210);fill-rule:nonzero;"/>
    </g>
</svg>
