<?xml version="1.0" encoding="UTF-8" standalone="no"?><!DOCTYPE svg PUBLIC "-//W3C//DTD SVG 1.1//EN" "http://www.w3.org/Graphics/SVG/1.1/DTD/svg11.dtd"><svg width="100%" height="100%" viewBox="0 0 4500 4500" version="1.1" xmlns="http://www.w3.org/2000/svg" xmlns:xlink="http://www.w3.org/1999/xlink" xml:space="preserve" xmlns:serif="http://www.serif.com/" style="fill-rule:evenodd;clip-rule:evenodd;stroke-linejoin:round;stroke-miterlimit:2;"><g><path d="M1797.667,2837.267l-58.504,0l0,-58.5l58.504,0l0,58.5Zm-29.25,127.504l-45.938,0l0,-28.629l-39.346,0l0,-46.967l46.967,0l0,29.662l38.317,0l0,45.933Zm-99.288,-226.375l-38.725,0l0,-38.725l38.725,0l0,38.725Zm0,132.654l-33.783,0l0,-33.783l33.783,0l0,33.783Zm-50.258,-51.083l-51.087,0l0,-51.087l51.087,0l0,51.087Zm-67.562,51.083l-46.142,0l0,-46.142l46.142,0l0,46.142Zm-60.975,-227.408l0,-51.083l51.088,0l0,51.083l-51.088,0Zm-32.958,198.983l-34.604,0l0,-34.608l34.604,0l0,34.608Zm-49.433,93.517l-65.917,0l0,-37.904l65.917,0l0,37.904Zm-82.396,-23.483l-41.612,0l0,-41.608l41.612,0l0,41.608Zm-18.129,-118.237l56.029,0l0,42.846l-56.029,0l0,-42.846Zm88.779,-75.388l39.758,0l0,39.754l-39.758,0l0,-39.754Zm1014.358,-1983.237l-1181.142,0l0,1460.133c0,-164.138 382.596,-589.454 541.287,-589.454c0,-81.104 2.192,-336.362 2.192,-336.362l637.663,0c0,0 327.596,1.096 327.596,317.737c0,316.638 -327.596,312.258 -327.596,312.258l-451.404,0c-314.521,0 -726.996,195.967 -729.675,657.275l-0.063,0l0,423.375l166.783,0l0,-30.612l94.137,0l0,30.612l9.063,0l0,-27.317l81.571,0l0,27.317l1.646,0l0,-30.612l-41.196,0l0,-51.908l51.912,0l0,51.908l65.092,0l0,30.612l169.212,0l0,-552.2l582.921,0c484.271,0 860.033,-352.054 860.033,-838.162c0,-456.142 -347.275,-854.6 -860.033,-854.6Z" style="fill:url(#_Linear1);"/></g><defs><linearGradient id="_Linear1" x1="0" y1="0" x2="1" y2="0" gradientUnits="userSpaceOnUse" gradientTransform="matrix(2041.175,0,0,2041.175,1229.4125,1858.279167)"><stop offset="0" style="stop-color:#fcd704;stop-opacity:1"/><stop offset="1" style="stop-color:#b7872c;stop-opacity:1"/></linearGradient></defs></svg>